<svg width="88" height="88" viewBox="0 0 88 88" fill="none" xmlns="http://www.w3.org/2000/svg">
<path d="M37.6823 60.555C37.7006 60.1517 38.3643 59.9904 38.5623 60.3424C39.4936 61.9924 41.0776 64.416 42.8743 65.5197C44.671 66.6234 47.553 66.935 49.445 67.0157C49.8483 67.034 50.006 67.6977 49.654 67.8957C48.004 68.827 45.584 70.411 44.4803 72.2077C43.3766 74.0044 43.065 76.8864 42.9843 78.7784C42.966 79.1817 42.2986 79.3394 42.1043 78.9874C41.173 77.3374 39.589 74.9174 37.7886 73.8137C35.992 72.71 33.11 72.3984 31.2216 72.3177C30.8183 72.2994 30.657 71.632 31.009 71.4377C32.659 70.5064 35.0826 68.9224 36.1863 67.122C37.2863 65.3254 37.6016 62.4434 37.6823 60.555Z" fill="#EDEEF3"/>
<path d="M67.8039 56.8883C67.7709 56.485 67.0706 56.3163 66.8579 56.661C66.2273 57.6986 65.3179 58.9453 64.3023 59.5687C63.2866 60.192 61.7649 60.434 60.5549 60.5293C60.1516 60.5586 59.9829 61.2626 60.3276 61.4716C61.3616 62.1023 62.6119 63.0116 63.2353 64.0273C63.8586 65.043 64.1006 66.5683 64.1959 67.7783C64.2253 68.1817 64.9293 68.3466 65.1383 68.002C65.7689 66.968 66.6783 65.7176 67.6939 65.098C68.7096 64.4783 70.2349 64.229 71.4449 64.1373C71.8483 64.1043 72.0133 63.404 71.6686 63.1913C70.6346 62.5606 69.3843 61.6513 68.7646 60.6357C68.1449 59.62 67.8956 58.0983 67.8039 56.8883Z" fill="#EDEEF3"/>
<path d="M53.911 14.674L53.0237 13.552C49.588 9.21432 47.872 7.04365 45.8737 7.36265C43.879 7.68532 42.922 10.2813 41.0117 15.477L40.5167 16.819C39.974 18.2966 39.7027 19.0337 39.182 19.5763C38.6613 20.119 37.95 20.4013 36.5273 20.9696L35.233 21.4867L34.3273 21.8533C29.9273 23.6133 27.7127 24.6143 27.4267 26.5577C27.126 28.6293 29.2233 30.404 33.418 33.9496L34.5033 34.8663C35.6987 35.8746 36.2927 36.3806 36.6337 37.0663C36.9783 37.752 37.026 38.544 37.1213 40.128L37.2093 41.569C37.554 47.1423 37.7227 49.929 39.5377 50.8896C41.349 51.8503 43.6003 50.3506 48.103 47.3476L49.269 46.5703C50.5487 45.716 51.1867 45.287 51.92 45.1733C52.6533 45.0596 53.3903 45.2613 54.8753 45.672L56.221 46.046C61.4387 47.4906 64.0457 48.213 65.4647 46.7353C66.8873 45.2577 66.1797 42.5553 64.768 37.1543L64.4013 35.7573C64.0017 34.221 63.8 33.4546 63.91 32.6956C64.02 31.9366 64.4307 31.2693 65.252 29.9383L65.9963 28.7283C68.8747 24.0497 70.3157 21.7103 69.3843 19.833C68.4493 17.963 65.7617 17.7907 60.3863 17.457L58.993 17.369C57.4677 17.2737 56.705 17.226 56.0413 16.874C55.3777 16.522 54.89 15.906 53.9147 14.674" fill="#EDEEF3"/>
<path d="M32.3949 48.862C24.5593 52.69 18.0363 58.7546 15.5759 66C12.8186 48.741 16.6466 37.5943 22.7809 30.6643C23.3089 31.746 23.9983 32.6406 24.6143 33.341C25.8976 34.793 27.7383 36.3476 29.6083 37.928L30.9539 39.0646L31.5773 39.5963C31.5956 39.831 31.6139 40.1096 31.6323 40.4653L31.7423 42.2436C31.8889 44.6453 32.0356 46.9883 32.3949 48.862Z" fill="#EDEEF3"/>
</svg>
